<svg xmlns="http://www.w3.org/2000/svg" viewBox="0 0 100 100">
  <defs>
    <linearGradient id="calendarGradient" x1="0%" y1="0%" x2="100%" y2="100%">
      <stop offset="0%" style="stop-color:#0d6efd;stop-opacity:1" />
      <stop offset="100%" style="stop-color:#6f42c1;stop-opacity:1" />
    </linearGradient>
  </defs>
  
  <!-- Calendar background -->
  <rect x="15" y="20" width="70" height="60" rx="8" fill="url(#calendarGradient)" stroke="#fff" stroke-width="2"/>
  
  <!-- Calendar header -->
  <rect x="15" y="20" width="70" height="15" rx="8" fill="#fff" opacity="0.9"/>
  
  <!-- Calendar rings -->
  <circle cx="30" cy="15" r="3" fill="#0d6efd"/>
  <circle cx="70" cy="15" r="3" fill="#0d6efd"/>
  
  <!-- Calendar grid -->
  <g fill="#fff" opacity="0.8">
    <circle cx="30" cy="45" r="2"/>
    <circle cx="40" cy="45" r="2"/>
    <circle cx="50" cy="45" r="2"/>
    <circle cx="60" cy="45" r="2"/>
    <circle cx="70" cy="45" r="2"/>
    
    <circle cx="30" cy="55" r="2"/>
    <circle cx="40" cy="55" r="2"/>
    <circle cx="50" cy="55" r="2"/>
    <circle cx="60" cy="55" r="2"/>
    <circle cx="70" cy="55" r="2"/>
    
    <circle cx="30" cy="65" r="2"/>
    <circle cx="40" cy="65" r="2"/>
    <circle cx="50" cy="65" r="2"/>
    <circle cx="60" cy="65" r="2"/>
    <circle cx="70" cy="65" r="2"/>
  </g>
  
  <!-- Special highlight (today) -->
  <circle cx="50" cy="55" r="3" fill="#ffc107"/>
</svg>